<?xml version="1.0" encoding="UTF-8"?>
<svg xmlns="http://www.w3.org/2000/svg" xmlns:xlink="http://www.w3.org/1999/xlink" width="48px" height="48px" viewBox="0 0 48 48" version="1.1">
<defs>
<linearGradient id="linear0" gradientUnits="userSpaceOnUse" x1="0.5" y1="10.89396" x2="0.5" y2="-1.595" gradientTransform="matrix(29.148438,0,0,2.753906,11.878906,19.980469)">
<stop offset="0.3033" style="stop-color:rgb(27.843137%,21.568627%,53.333333%);stop-opacity:1;"/>
<stop offset="0.872" style="stop-color:rgb(17.254902%,13.333333%,33.333333%);stop-opacity:1;"/>
</linearGradient>
<linearGradient id="linear1" gradientUnits="userSpaceOnUse" x1="0.49999" y1="8.96537" x2="0.49999" y2="-3.52359" gradientTransform="matrix(29.148438,0,0,2.753906,11.878906,25.292969)">
<stop offset="0.3033" style="stop-color:rgb(27.843137%,21.568627%,53.333333%);stop-opacity:1;"/>
<stop offset="0.872" style="stop-color:rgb(17.254902%,13.333333%,33.333333%);stop-opacity:1;"/>
</linearGradient>
<linearGradient id="linear2" gradientUnits="userSpaceOnUse" x1="0.49999" y1="2.1517" x2="0.49999" y2="-1.66715" gradientTransform="matrix(26.515625,0,0,9.007813,13.195313,30.605469)">
<stop offset="0.3033" style="stop-color:rgb(27.843137%,21.568627%,53.333333%);stop-opacity:1;"/>
<stop offset="0.8631" style="stop-color:rgb(17.254902%,13.333333%,33.333333%);stop-opacity:1;"/>
</linearGradient>
</defs>
<g id="surface1">
<path style=" stroke:none;fill-rule:nonzero;fill:rgb(17.254902%,13.333333%,33.333333%);fill-opacity:1;" d="M 13.195312 30.605469 L 5.859375 30.605469 C 6.832031 34.160156 8.632812 37.34375 11.273438 40.160156 C 15.480469 44.644531 20.539062 46.886719 26.453125 46.886719 C 27.636719 46.886719 28.78125 46.792969 29.894531 46.613281 C 34.347656 45.894531 38.25 43.746094 41.589844 40.160156 C 44.246094 37.34375 46.0625 34.160156 47.039062 30.605469 Z M 9.152344 19.980469 L 5.320312 19.980469 C 5.175781 20.890625 5.082031 21.8125 5.039062 22.734375 L 47.867188 22.734375 C 47.820312 21.796875 47.726562 20.878906 47.585938 19.980469 M 5.039062 25.292969 C 5.085938 26.234375 5.179688 27.152344 5.320312 28.046875 L 47.585938 28.046875 C 47.730469 27.136719 47.824219 26.21875 47.867188 25.292969 M 47.042969 17.421875 C 46.0625 13.859375 44.25 10.660156 41.589844 7.824219 C 38.257812 4.269531 34.367188 2.136719 29.925781 1.417969 C 28.777344 1.234375 27.617188 1.140625 26.453125 1.140625 C 20.539062 1.140625 15.480469 3.371094 11.273438 7.824219 C 8.632812 10.660156 6.832031 13.859375 5.859375 17.421875 "/>
<path style=" stroke:none;fill-rule:nonzero;fill:rgb(96.862745%,58.039216%,11.764706%);fill-opacity:1;" d="M 3.765625 24.015625 C 3.765625 11.949219 12.265625 1.925781 23.316406 0.160156 C 23.042969 0.148438 22.765625 0.136719 22.492188 0.136719 C 10.085938 0.136719 0.03125 10.828125 0.03125 24.015625 C 0.03125 37.203125 10.085938 47.890625 22.492188 47.890625 C 22.769531 47.890625 23.042969 47.882812 23.320312 47.871094 C 12.265625 46.105469 3.765625 36.082031 3.765625 24.015625 Z M 3.765625 24.015625 "/>
<path style=" stroke:none;fill-rule:nonzero;fill:url(#linear0);" d="M 41.027344 22.734375 C 40.957031 21.804688 40.808594 20.882812 40.582031 19.980469 L 12.324219 19.980469 C 12.097656 20.882812 11.949219 21.804688 11.878906 22.734375 Z M 41.027344 22.734375 "/>
<path style=" stroke:none;fill-rule:nonzero;fill:url(#linear1);" d="M 41.027344 25.292969 L 11.878906 25.292969 C 11.949219 26.222656 12.097656 27.144531 12.324219 28.046875 L 40.585938 28.046875 C 40.808594 27.144531 40.957031 26.222656 41.027344 25.292969 Z M 41.027344 25.292969 "/>
<path style=" stroke:none;fill-rule:nonzero;fill:url(#linear2);" d="M 26.453125 39.613281 C 32.324219 39.613281 37.382812 35.925781 39.710938 30.605469 L 13.195312 30.605469 C 15.527344 35.925781 20.585938 39.613281 26.453125 39.613281 Z M 26.453125 39.613281 "/>
<path style=" stroke:none;fill-rule:nonzero;fill:rgb(100%,100%,100%);fill-opacity:1;" d="M 9.71875 25.292969 L 47.835938 25.292969 C 47.855469 24.886719 47.867188 24.476562 47.867188 24.0625 C 47.867188 23.617188 47.851562 23.175781 47.828125 22.734375 L 5.039062 22.734375 C 5.015625 23.175781 5 23.617188 5 24.0625 C 5 24.476562 5.011719 24.886719 5.035156 25.292969 Z M 13.109375 17.421875 L 5.859375 17.421875 C 5.621094 18.253906 5.46875 19.109375 5.320312 19.980469 L 47.449219 19.980469 C 47.304688 19.117188 47.113281 18.261719 46.875 17.421875 M 44.695312 28.046875 L 5.320312 28.046875 C 5.464844 28.917969 5.625 29.773438 5.859375 30.605469 L 47.011719 30.605469 C 47.25 29.765625 47.4375 28.910156 47.582031 28.046875 Z M 44.695312 28.046875 "/>
</g>
</svg>
