<?xml version="1.0" encoding="UTF-8"?>
<svg id="Livello_1" data-name="Livello 1" xmlns="http://www.w3.org/2000/svg" viewBox="0 0 443.45 443.06">
  <defs>
    <style>
      .cls-1 {
        fill: #fdcc07;
      }

      .cls-1, .cls-2, .cls-3, .cls-4 {
        stroke-width: 0px;
      }

      .cls-2 {
        fill: #fefdfd;
      }

      .cls-3 {
        fill: #131414;
      }

      .cls-4 {
        fill: #fdfdfd;
      }
    </style>
  </defs>
  <path class="cls-2" d="m179.18,195.52c-6.66,12.77-5.73,25.81-1.68,40.1-15.98,5.38-31.75,11.51-47.98,15.94-21.57,5.89-43.72,9.22-66.16,7.33-9.48-.8-19.09-2.72-28.09-5.74-13.04-4.39-21.6-13.6-23.27-27.9-1.91-16.31,2.67-29.91,17.3-38.82,10.8-6.57,22.86-9.12,35.27-10.17,33.58-2.83,66.19,2.7,98.29,11.96,5.47,1.58,10.5,4.65,16.32,7.3Z"/>
  <path class="cls-2" d="m271.07,230.87c5.01-13.22-.74-24.5-2.61-37.2,7.58-2.27,15.24-4.92,23.08-6.85,22.36-5.51,45.04-8.81,68.14-7.44,21.63,1.28,42.24,5.87,59.37,20.39,1.83,1.55,3.6,3.22,5.16,5.04,12.13,14.22,10.25,29.42-4.88,40.54-14.04,10.31-30.05,14-47.11,13.97-22.42-.04-43.84-5.42-64.65-13.19-12.24-4.57-24.13-10.05-36.49-15.25Z"/>
  <path class="cls-4" d="m182.73,246.08c3.57,3.12,7.07,5.72,9.94,8.89,1.14,1.26,1.72,4.13,1.1,5.7-5.82,14.88-11.17,30.03-18.19,44.35-10.97,22.37-24.56,43.2-41.27,61.83-9.7,10.82-20.18,20.73-34.01,26.17-10.91,4.29-20.99,2.91-30.12-4.77-6.28-5.28-7.37-12.51-7.93-19.93-1.84-24.65,9.14-43.95,25.69-60.86,19.57-19.99,43.52-33.67,67.73-46.97,8.98-4.93,18.08-9.64,27.05-14.41Z"/>
  <path class="cls-4" d="m235.2,261.96c11.28,23.13,19.19,47.49,20.86,73.65,1.33,20.91,1.41,41.77-4.09,62.17-1.77,6.58-4.21,13.22-7.66,19.05-10.79,18.27-33.33,20.07-47.39,4.15-8.97-10.16-12.55-22.61-14.04-35.68-3.16-27.75,3.29-54.2,11.88-80.21,3.86-11.7,8.46-23.19,13.23-34.56,3.57-8.51,5.23-7.95,11.31-7.67,5.23.24,10.5-.56,15.91-.91Z"/>
  <path class="cls-4" d="m199.76,177.67c-5.4,2.13-9.59,8.16-16.6,6.04-4.43-1.34-8.82-3.08-12.89-5.26-29.69-15.93-55.91-35.86-73.53-65.37-11.03-18.47-16.85-38.13-12.36-59.81,4.38-21.15,22.39-28.53,40.42-16.73,9.73,6.37,17.03,15.12,23.6,24.47,15.23,21.65,26.5,45.43,36,69.99,3.9,10.09,5.68,20.99,8.88,31.38,1.59,5.16,4.2,10.01,6.47,15.29Z"/>
  <path class="cls-4" d="m242.15,173.77c-9.25-.1-18.3-.13-27.34-.39-1.22-.04-3.13-1.01-3.5-2-5.36-14.4-11.75-28.57-15.4-43.41-4.25-17.26-5.22-35.18-3.85-53.06,1.13-14.76,2.92-29.36,9.9-42.76,8.39-16.11,22.22-23.52,38.15-20.44,13.08,2.53,18.71,12.07,21.55,23.74,3.58,14.71,2.93,29.66,1.36,44.55-3.13,29.76-10.64,58.58-19.08,87.19-.76,2.59-1.42,5.22-1.79,6.58Z"/>
  <path class="cls-4" d="m248.08,257.65c6.21-5,11.79-9.5,18.53-14.92,19.03,16.52,38.81,33.13,57.92,50.48,15.35,13.93,29.64,29.05,40.96,46.53,5.17,7.99,9.79,16.69,12.73,25.69,5.95,18.25-6.9,28.05-21.81,30.69-7.06,1.25-13.67-1.09-19.92-4.23-18.12-9.12-31.87-23.17-43.39-39.47-19.12-27.07-32.69-56.89-42.81-88.35-.73-2.28-1.56-4.52-2.21-6.41Z"/>
  <path class="cls-4" d="m258.83,185.66c-4.15-2.59-5.1-6.36-4.04-10.74,6.58-27.22,15.84-53.58,30.44-77.46,12.16-19.9,30.01-33.63,53.28-39.04,6.69-1.56,13.4-1.01,19.77,1.93,13.17,6.09,18.16,17.95,14.85,34.27-4.5,22.21-17.95,38.27-35.25,51.63-21.96,16.96-47.15,27.64-73,36.96-1.93.7-3.81,1.54-6.05,2.45Z"/>
  <path class="cls-3" d="m302.08,257.53c9.5,8.62,19.14,17.09,28.47,25.88,17.1,16.11,33.54,32.92,46.12,52.87,5.24,8.31,9.85,17.46,12.51,26.87,6.72,23.73-7.52,38.65-28.29,43.61-13.61,3.25-25.62-1.99-36.9-8.92-17.27-10.63-30.59-25.34-41.93-41.92-4.94-7.23-9.44-14.77-14.66-22.98,0,2.25-.06,3.71,0,5.17,1.01,22.37.79,44.66-5.55,66.4-3.23,11.06-7.67,21.66-16.66,29.28-18.76,15.91-46.84,10.76-61.03-10.77-8.17-12.41-11.86-26.28-12.95-40.83-1.13-15.11.1-30.15,3.35-44.99.43-1.98.41-4.05-.21-6.41-3.53,5.42-6.98,10.89-10.62,16.24-12.53,18.4-26.26,35.75-44.72,48.69-8.78,6.15-18.29,10.78-29.26,11.1-20.24.58-35.84-13.41-38.35-33.57-3.5-28.08,7.39-50.82,25.74-70.83,12.69-13.84,27.75-24.78,43.58-34.71.93-.59,1.85-1.2,2.61-2.76-3.26.51-6.52.97-9.77,1.54-24.01,4.24-48.05,6.55-72.12.59-12.37-3.07-23.66-8.17-31.77-18.6-17.98-23.14-10-59.42,15.97-73.06,13.98-7.35,29.06-9.98,44.56-10.74,18.52-.9,36.92.53,55.22,3.5,1.95.32,3.95.32,6.88.54-7.21-6.48-13.82-11.97-19.91-17.99-17.85-17.67-31.65-37.92-38.04-62.55-3.65-14.1-3.9-28.32.36-42.35,7.25-23.87,32.31-33.18,53.68-20.28,13.72,8.28,23.61,20.24,32.1,33.4,6.94,10.76,13.08,22.03,20.11,33.97,0-2.27.03-3.88,0-5.48-.38-15.35,1.15-30.5,5.41-45.26,3.85-13.33,10.02-25.25,21.39-34.01,12.66-9.76,40.51-13.11,54.73,3.52,7.36,8.6,10.7,18.94,12.02,29.91,2.03,16.81,1.56,33.59-1.72,50.25-.08.43.17.92.51,2.51,1.45-1.86,2.47-3.07,3.38-4.36,13.83-19.57,31.45-34.18,54.63-41.32,9.39-2.89,18.98-3.18,28.42,0,18.5,6.25,28.69,24.21,25.59,43.79-3.7,23.38-15.55,41.89-33.22,56.9-7.07,6.01-14.93,11.07-22.44,16.55-1.09.8-2.21,1.54-3.02,3.1,5.33-.33,10.66-.8,16-.96,26.2-.81,51.74,1.94,74.52,16.27,6.29,3.96,12.14,9.11,17,14.74,14.42,16.73,12.39,38.13-4.37,52.56-12.87,11.08-28.11,16.41-44.73,18.24-27,2.98-52.58-3.57-77.86-11.9-1.36-.45-2.74-.84-4.11-1.26-.71-.09-1.43-.18-2.14-.27l-.12.54,1.59.58Zm-122.89-62.01c-5.82-2.65-10.86-5.72-16.32-7.3-32.1-9.25-64.7-14.79-98.29-11.96-12.41,1.05-24.47,3.6-35.27,10.17-14.64,8.91-19.21,22.51-17.3,38.82,1.67,14.3,10.23,23.52,23.27,27.9,9,3.03,18.61,4.95,28.09,5.74,22.44,1.89,44.59-1.44,66.16-7.33,16.23-4.43,31.99-10.56,47.98-15.94-4.05-14.29-4.97-27.34,1.68-40.1Zm91.88,35.35c12.35,5.2,24.25,10.68,36.49,15.25,20.82,7.77,42.23,13.15,64.65,13.19,17.06.03,33.07-3.65,47.11-13.97,15.13-11.12,17.01-26.32,4.88-40.54-1.55-1.82-3.33-3.49-5.16-5.04-17.12-14.52-37.74-19.1-59.37-20.39-23.1-1.37-45.78,1.93-68.14,7.44-7.84,1.93-15.5,4.58-23.08,6.85,1.87,12.7,7.62,23.98,2.61,37.2Zm-88.33,15.21c-8.97,4.77-18.07,9.48-27.05,14.41-24.2,13.3-48.16,26.99-67.73,46.97-16.55,16.91-27.53,36.21-25.69,60.86.55,7.42,1.65,14.66,7.93,19.93,9.14,7.68,19.21,9.06,30.12,4.77,13.83-5.44,24.3-15.35,34.01-26.17,16.71-18.63,30.3-39.46,41.27-61.83,7.02-14.32,12.36-29.47,18.19-44.35.61-1.57.03-4.44-1.1-5.7-2.86-3.18-6.36-5.78-9.94-8.89Zm52.47,15.88c-5.41.35-10.68,1.15-15.91.91-6.08-.28-7.74-.84-11.31,7.67-4.77,11.37-9.36,22.86-13.23,34.56-8.59,26.01-15.04,52.46-11.88,80.21,1.49,13.06,5.06,25.52,14.04,35.68,14.06,15.93,36.6,14.12,47.39-4.15,3.45-5.83,5.88-12.48,7.66-19.05,5.5-20.4,5.43-41.26,4.09-62.17-1.67-26.16-9.58-50.53-20.86-73.65Zm-35.44-84.29c-2.27-5.28-4.88-10.13-6.47-15.29-3.2-10.39-4.98-21.29-8.88-31.38-9.5-24.56-20.77-48.34-36-69.99-6.58-9.35-13.87-18.1-23.6-24.47-18.03-11.8-36.03-4.43-40.42,16.73-4.49,21.68,1.33,41.34,12.36,59.81,17.62,29.51,43.84,49.44,73.53,65.37,4.07,2.18,8.46,3.92,12.89,5.26,7.01,2.12,11.2-3.91,16.6-6.04Zm42.39-3.9c.37-1.37,1.02-3.99,1.79-6.58,8.44-28.61,15.95-57.43,19.08-87.19,1.57-14.88,2.22-29.84-1.36-44.55-2.84-11.68-8.46-21.21-21.55-23.74-15.93-3.08-29.76,4.34-38.15,20.44-6.98,13.39-8.76,28-9.9,42.76-1.37,17.89-.4,35.8,3.85,53.06,3.65,14.84,10.04,29.01,15.4,43.41.37.99,2.28,1.97,3.5,2,9.04.26,18.09.29,27.34.39Zm5.93,83.88c.65,1.89,1.48,4.13,2.21,6.41,10.12,31.46,23.69,61.29,42.81,88.35,11.52,16.3,25.27,30.35,43.39,39.47,6.25,3.14,12.86,5.48,19.92,4.23,14.91-2.64,27.76-12.44,21.81-30.69-2.93-9.01-7.56-17.71-12.73-25.69-11.32-17.47-25.61-32.59-40.96-46.53-19.11-17.35-38.9-33.96-57.92-50.48-6.73,5.42-12.31,9.92-18.53,14.92Zm10.76-71.99c2.24-.91,4.12-1.75,6.05-2.45,25.85-9.32,51.04-20.01,73-36.96,17.29-13.36,30.74-29.42,35.25-51.63,3.31-16.33-1.67-28.18-14.85-34.27-6.37-2.94-13.08-3.48-19.77-1.93-23.27,5.41-41.12,19.14-53.28,39.04-14.6,23.88-23.86,50.24-30.44,77.46-1.06,4.38-.11,8.15,4.04,10.74Zm-34.54-2.78c-6.61,1.74-13.49,2.81-19.76,5.36-10.81,4.39-18.15,12.31-18.83,24.5-.78,13.84,2.36,26.53,15.47,33.91,16.08,9.05,32.1,6.64,46.76-3.23,17.65-11.89,17.32-29.94,7.46-44.68-6.88-10.28-17.99-15.18-31.09-15.86Z"/>
  <path class="cls-1" d="m224.3,182.89c13.1.68,24.21,5.58,31.09,15.86,9.86,14.73,10.19,32.79-7.46,44.68-14.66,9.87-30.68,12.28-46.76,3.23-13.11-7.38-16.25-20.06-15.47-33.91.69-12.19,8.03-20.11,18.83-24.5,6.28-2.55,13.16-3.62,19.76-5.36Z"/>
</svg>