<?xml version="1.0" encoding="UTF-8"?>
<svg xmlns="http://www.w3.org/2000/svg" xmlns:xlink="http://www.w3.org/1999/xlink" width="48px" height="48px" viewBox="0 0 48 48" version="1.1">
<g id="surface1">
<path style=" stroke:none;fill-rule:nonzero;fill:rgb(100%,42.352941%,21.568627%);fill-opacity:1;" d="M 47.804688 27.046875 C 49.484375 13.898438 40.195312 1.875 27.070312 0.195312 C 13.945312 -1.484375 1.875 7.804688 0.195312 20.929688 C -1.484375 34.054688 7.804688 46.101562 20.929688 47.804688 C 34.078125 49.484375 46.101562 40.195312 47.804688 27.046875 Z M 47.804688 27.046875 "/>
<path style=" stroke:none;fill-rule:nonzero;fill:rgb(100%,100%,100%);fill-opacity:1;" d="M 32.664062 15.410156 L 22.535156 25.535156 L 19.679688 22.679688 C 29.640625 12.722656 30.621094 13.585938 32.664062 15.410156 Z M 32.664062 15.410156 "/>
<path style=" stroke:none;fill-rule:nonzero;fill:rgb(100%,42.352941%,21.568627%);fill-opacity:1;" d="M 22.535156 25.777344 C 22.464844 25.777344 22.417969 25.75 22.367188 25.703125 L 19.488281 22.847656 C 19.394531 22.753906 19.394531 22.609375 19.488281 22.511719 C 29.613281 12.386719 30.671875 13.347656 32.804688 15.265625 C 32.855469 15.3125 32.878906 15.363281 32.878906 15.433594 C 32.878906 15.503906 32.855469 15.554688 32.804688 15.601562 L 22.679688 25.703125 C 22.65625 25.75 22.585938 25.777344 22.535156 25.777344 Z M 20.015625 22.679688 L 22.535156 25.199219 L 32.300781 15.433594 C 30.527344 13.851562 29.328125 13.371094 20.015625 22.679688 Z M 20.015625 22.679688 "/>
<path style=" stroke:none;fill-rule:nonzero;fill:rgb(100%,100%,100%);fill-opacity:1;" d="M 25.441406 28.4375 L 22.679688 25.679688 L 32.804688 15.554688 C 35.519531 18.289062 31.460938 22.726562 25.441406 28.4375 Z M 25.441406 28.4375 "/>
<path style=" stroke:none;fill-rule:nonzero;fill:rgb(100%,42.352941%,21.568627%);fill-opacity:1;" d="M 25.441406 28.679688 C 25.367188 28.679688 25.320312 28.65625 25.273438 28.605469 L 22.511719 25.847656 C 22.464844 25.800781 22.464844 25.75 22.464844 25.679688 C 22.464844 25.609375 22.488281 25.558594 22.535156 25.511719 L 32.664062 15.386719 C 32.757812 15.289062 32.902344 15.289062 33 15.386719 C 33.621094 15.960938 33.957031 16.777344 33.933594 17.617188 C 33.886719 20.28125 30.863281 23.664062 25.632812 28.605469 C 25.558594 28.65625 25.488281 28.679688 25.441406 28.679688 Z M 23.015625 25.679688 C 24.550781 27.238281 25.199219 27.863281 25.441406 28.101562 C 29.472656 24.265625 33.382812 20.328125 33.40625 17.617188 C 33.429688 16.992188 33.191406 16.371094 32.78125 15.890625 Z M 23.015625 25.679688 "/>
<path style=" stroke:none;fill-rule:nonzero;fill:rgb(100%,100%,100%);fill-opacity:1;" d="M 19.730469 22.753906 L 21.769531 24.792969 C 21.816406 24.839844 21.816406 24.886719 21.769531 24.9375 C 21.746094 24.960938 21.746094 24.960938 21.71875 24.960938 L 17.496094 25.871094 C 17.28125 25.894531 17.089844 25.75 17.042969 25.535156 C 17.015625 25.414062 17.066406 25.296875 17.136719 25.222656 L 19.585938 22.777344 C 19.632812 22.726562 19.703125 22.703125 19.730469 22.753906 Z M 19.730469 22.753906 "/>
<path style=" stroke:none;fill-rule:nonzero;fill:rgb(100%,42.352941%,21.568627%);fill-opacity:1;" d="M 17.425781 26.113281 C 17.066406 26.113281 16.800781 25.824219 16.800781 25.464844 C 16.800781 25.296875 16.875 25.128906 16.992188 25.007812 L 19.441406 22.558594 C 19.585938 22.441406 19.777344 22.441406 19.921875 22.558594 L 21.960938 24.601562 C 22.105469 24.71875 22.105469 24.9375 21.960938 25.078125 C 21.914062 25.128906 21.863281 25.152344 21.792969 25.175781 L 17.570312 26.085938 C 17.519531 26.085938 17.472656 26.113281 17.425781 26.113281 Z M 19.65625 23.015625 L 17.304688 25.367188 C 17.257812 25.414062 17.234375 25.488281 17.28125 25.558594 C 17.304688 25.632812 17.378906 25.65625 17.449219 25.632812 L 21.410156 24.769531 Z M 19.65625 23.015625 "/>
<path style=" stroke:none;fill-rule:nonzero;fill:rgb(100%,100%,100%);fill-opacity:1;" d="M 38.011719 9.792969 C 36.476562 8.308594 34.007812 8.355469 32.519531 9.914062 C 31.03125 11.472656 31.078125 13.921875 32.636719 15.410156 C 33.910156 16.632812 35.828125 16.847656 37.339844 15.9375 L 34.605469 13.203125 Z M 38.011719 9.792969 "/>
<path style=" stroke:none;fill-rule:nonzero;fill:rgb(100%,42.352941%,21.568627%);fill-opacity:1;" d="M 35.324219 16.730469 C 33.046875 16.730469 31.199219 14.882812 31.199219 12.601562 C 31.199219 10.324219 33.046875 8.476562 35.324219 8.476562 C 36.382812 8.476562 37.414062 8.882812 38.179688 9.625 C 38.230469 9.675781 38.253906 9.722656 38.253906 9.792969 C 38.253906 9.867188 38.230469 9.914062 38.179688 9.960938 L 34.941406 13.203125 L 37.484375 15.746094 C 37.582031 15.839844 37.582031 15.984375 37.484375 16.082031 C 37.460938 16.105469 37.460938 16.105469 37.4375 16.128906 C 36.8125 16.511719 36.070312 16.730469 35.324219 16.730469 Z M 35.324219 8.980469 C 33.308594 8.980469 31.679688 10.609375 31.703125 12.625 C 31.703125 14.640625 33.335938 16.273438 35.351562 16.25 C 35.902344 16.25 36.453125 16.128906 36.957031 15.867188 L 34.4375 13.371094 C 34.390625 13.320312 34.367188 13.273438 34.367188 13.203125 C 34.367188 13.128906 34.390625 13.082031 34.4375 13.035156 L 37.652344 9.820312 C 37.003906 9.265625 36.191406 8.980469 35.324219 8.980469 Z M 35.324219 8.980469 "/>
<path style=" stroke:none;fill-rule:nonzero;fill:rgb(100%,100%,100%);fill-opacity:1;" d="M 38.085938 9.867188 L 38.039062 9.820312 L 34.605469 13.203125 L 37.316406 15.914062 C 37.582031 15.746094 37.84375 15.554688 38.0625 15.335938 C 39.597656 13.824219 39.597656 11.378906 38.085938 9.867188 Z M 38.085938 9.867188 "/>
<path style=" stroke:none;fill-rule:nonzero;fill:rgb(100%,42.352941%,21.568627%);fill-opacity:1;" d="M 37.339844 16.175781 C 37.269531 16.175781 37.222656 16.152344 37.171875 16.105469 L 34.4375 13.371094 C 34.390625 13.320312 34.367188 13.273438 34.367188 13.203125 C 34.367188 13.128906 34.390625 13.082031 34.4375 13.035156 L 37.84375 9.625 C 37.941406 9.53125 38.085938 9.53125 38.179688 9.625 L 38.253906 9.675781 C 39.859375 11.28125 39.859375 13.875 38.277344 15.503906 C 38.039062 15.746094 37.773438 15.960938 37.484375 16.128906 C 37.414062 16.152344 37.367188 16.175781 37.339844 16.175781 Z M 34.941406 13.203125 L 37.367188 15.625 C 37.558594 15.503906 37.75 15.335938 37.894531 15.195312 C 39.261719 13.824219 39.332031 11.59375 38.011719 10.15625 Z M 34.941406 13.203125 "/>
<path style=" stroke:none;fill-rule:nonzero;fill:rgb(100%,100%,100%);fill-opacity:1;" d="M 33.070312 15.839844 C 32.496094 15.265625 31.558594 15.265625 30.984375 15.839844 L 21.9375 24.886719 L 23.449219 26.398438 L 33.023438 18 C 33.644531 17.472656 33.695312 16.539062 33.167969 15.914062 C 33.117188 15.890625 33.09375 15.867188 33.070312 15.839844 Z M 33.070312 15.839844 "/>
<path style=" stroke:none;fill-rule:nonzero;fill:rgb(100%,42.352941%,21.568627%);fill-opacity:1;" d="M 23.425781 26.640625 C 23.351562 26.640625 23.304688 26.617188 23.257812 26.566406 L 21.746094 25.054688 C 21.648438 24.960938 21.648438 24.816406 21.746094 24.71875 L 30.789062 15.671875 C 31.460938 15 32.542969 15 33.214844 15.671875 C 33.886719 16.34375 33.886719 17.425781 33.214844 18.097656 C 33.191406 18.121094 33.167969 18.144531 33.140625 18.167969 L 23.566406 26.566406 C 23.542969 26.617188 23.496094 26.640625 23.425781 26.640625 Z M 22.273438 24.886719 L 23.449219 26.0625 L 32.855469 17.808594 C 33.382812 17.378906 33.429688 16.585938 33 16.058594 C 32.566406 15.53125 31.773438 15.480469 31.246094 15.914062 C 31.222656 15.9375 31.199219 15.960938 31.152344 15.984375 Z M 22.273438 24.886719 "/>
<path style=" stroke:none;fill-rule:nonzero;fill:rgb(100%,100%,100%);fill-opacity:1;" d="M 15 35.183594 C 14.90625 35.230469 14.859375 35.324219 14.882812 35.421875 L 15.289062 37.148438 C 15.386719 37.390625 15.242188 37.675781 14.976562 37.75 C 14.785156 37.820312 14.570312 37.75 14.449219 37.605469 L 11.808594 34.988281 L 20.425781 26.375 L 23.398438 26.421875 L 25.414062 28.4375 C 24.9375 28.847656 22.03125 31.65625 15 35.183594 Z M 15 35.183594 "/>
<path style=" stroke:none;fill-rule:nonzero;fill:rgb(100%,42.352941%,21.568627%);fill-opacity:1;" d="M 14.808594 37.988281 C 14.617188 37.988281 14.425781 37.917969 14.304688 37.773438 L 11.691406 35.15625 C 11.640625 35.109375 11.617188 35.0625 11.617188 34.988281 C 11.617188 34.917969 11.640625 34.871094 11.691406 34.820312 L 20.304688 26.207031 C 20.351562 26.160156 20.425781 26.136719 20.472656 26.136719 L 23.449219 26.183594 C 23.519531 26.183594 23.566406 26.207031 23.617188 26.253906 L 25.632812 28.269531 C 25.679688 28.320312 25.703125 28.390625 25.703125 28.464844 C 25.703125 28.535156 25.679688 28.582031 25.609375 28.632812 L 25.441406 28.773438 C 22.894531 31.007812 19.441406 33.238281 15.144531 35.375 L 15.554688 37.078125 C 15.625 37.390625 15.480469 37.726562 15.195312 37.894531 C 15.050781 37.964844 14.929688 37.988281 14.808594 37.988281 Z M 12.171875 34.988281 L 14.640625 37.4375 C 14.714844 37.558594 14.859375 37.605469 14.976562 37.535156 C 15.097656 37.460938 15.144531 37.316406 15.074219 37.199219 L 14.664062 35.46875 C 14.617188 35.253906 14.714844 35.0625 14.90625 34.964844 C 19.152344 32.832031 22.585938 30.621094 25.105469 28.4375 L 23.328125 26.664062 L 20.570312 26.617188 Z M 12.171875 34.988281 "/>
<path style=" stroke:none;fill-rule:nonzero;fill:rgb(100%,100%,100%);fill-opacity:1;" d="M 9.769531 37.054688 L 11.835938 34.988281 L 14.90625 38.0625 L 10.011719 37.726562 C 9.792969 37.703125 9.652344 37.507812 9.675781 37.292969 C 9.675781 37.199219 9.699219 37.101562 9.769531 37.054688 Z M 9.769531 37.054688 "/>
<path style=" stroke:none;fill-rule:nonzero;fill:rgb(100%,42.352941%,21.568627%);fill-opacity:1;" d="M 14.90625 38.277344 L 9.988281 37.941406 C 9.625 37.917969 9.386719 37.605469 9.410156 37.246094 C 9.433594 37.101562 9.484375 36.957031 9.601562 36.863281 L 11.667969 34.796875 C 11.761719 34.703125 11.90625 34.703125 12.003906 34.796875 L 15.074219 37.871094 C 15.144531 37.941406 15.167969 38.039062 15.121094 38.132812 C 15.074219 38.230469 15 38.277344 14.90625 38.277344 Z M 11.835938 35.324219 L 9.9375 37.222656 C 9.867188 37.269531 9.867188 37.390625 9.9375 37.4375 C 9.960938 37.460938 9.988281 37.484375 10.035156 37.484375 L 14.28125 37.773438 Z M 11.835938 35.324219 "/>
<path style=" stroke:none;fill-rule:nonzero;fill:rgb(100%,42.352941%,21.568627%);fill-opacity:1;" d="M 19.585938 27.480469 C 19.441406 27.480469 19.34375 27.359375 19.34375 27.238281 C 19.34375 27.167969 19.367188 27.121094 19.417969 27.070312 L 21.746094 24.742188 C 21.839844 24.648438 21.984375 24.648438 22.082031 24.742188 L 23.59375 26.253906 C 23.664062 26.328125 23.6875 26.398438 23.664062 26.496094 C 23.640625 26.566406 23.566406 26.640625 23.472656 26.664062 L 19.632812 27.480469 C 19.609375 27.480469 19.585938 27.480469 19.585938 27.480469 Z M 21.914062 25.246094 L 20.328125 26.832031 L 22.921875 26.28125 Z M 21.914062 25.246094 "/>
<path style=" stroke:none;fill-rule:nonzero;fill:rgb(100%,100%,100%);fill-opacity:1;" d="M 23.398438 26.421875 L 20.761719 27 C 20.570312 27.046875 20.375 26.925781 20.328125 26.734375 C 20.304688 26.617188 20.328125 26.496094 20.425781 26.398438 L 21.886719 24.9375 Z M 23.398438 26.421875 "/>
<path style=" stroke:none;fill-rule:nonzero;fill:rgb(100%,42.352941%,21.568627%);fill-opacity:1;" d="M 20.710938 27.238281 C 20.375 27.238281 20.113281 26.976562 20.113281 26.640625 C 20.113281 26.472656 20.183594 26.328125 20.28125 26.207031 L 21.746094 24.742188 C 21.839844 24.648438 21.984375 24.648438 22.082031 24.742188 L 23.59375 26.253906 C 23.664062 26.328125 23.6875 26.398438 23.664062 26.496094 C 23.640625 26.566406 23.566406 26.640625 23.472656 26.664062 L 20.832031 27.238281 C 20.785156 27.238281 20.738281 27.238281 20.710938 27.238281 Z M 21.914062 25.246094 L 20.617188 26.542969 C 20.570312 26.589844 20.570312 26.640625 20.59375 26.6875 C 20.617188 26.734375 20.664062 26.757812 20.738281 26.757812 L 22.945312 26.28125 Z M 21.914062 25.246094 "/>
<path style=" stroke:none;fill-rule:nonzero;fill:rgb(100%,42.352941%,21.568627%);fill-opacity:1;" d="M 38.109375 12.171875 C 38.0625 12.027344 37.894531 11.953125 37.75 12.003906 C 37.605469 12.050781 37.535156 12.21875 37.582031 12.363281 C 37.582031 12.386719 37.605469 12.410156 37.605469 12.433594 C 37.75 12.722656 37.703125 13.082031 37.507812 13.347656 C 37.414062 13.464844 37.4375 13.632812 37.535156 13.730469 C 37.652344 13.824219 37.820312 13.800781 37.917969 13.683594 C 38.277344 13.226562 38.347656 12.648438 38.109375 12.171875 Z M 38.109375 12.171875 "/>
</g>
</svg>
